<svg viewBox="0 0 1000 750" preserveAspectRatio="xMidYMid slice" fill="none" xmlns="http://www.w3.org/2000/svg">
  <defs>
    <filter id="cs2-hs"><feDropShadow dx="3" dy="3" stdDeviation="0" flood-color="#3a3535" flood-opacity="1"/></filter>
  </defs>

  <!-- Track baselines -->
  <line x1="80" y1="150" x2="920" y2="150" stroke="#3a3535" stroke-width="1" opacity="0.06"/>
  <line x1="80" y1="270" x2="920" y2="270" stroke="#3a3535" stroke-width="1" opacity="0.06"/>
  <line x1="80" y1="390" x2="920" y2="390" stroke="#3a3535" stroke-width="1" opacity="0.06"/>
  <line x1="80" y1="510" x2="920" y2="510" stroke="#3a3535" stroke-width="1" opacity="0.06"/>
  <line x1="80" y1="620" x2="920" y2="620" stroke="#3a3535" stroke-width="1" opacity="0.06"/>

  <!-- Track 1: orange blocks -->
  <rect x="100" y="120" width="120" height="24" fill="#ffa878" stroke="#3a3535" stroke-width="2" filter="url(#cs2-hs)"/>
  <rect x="260" y="120" width="80" height="24" fill="#ffa878" stroke="#3a3535" stroke-width="2" filter="url(#cs2-hs)"/>
  <rect x="380" y="120" width="180" height="24" fill="#ffa878" stroke="#3a3535" stroke-width="2" filter="url(#cs2-hs)"/>
  <rect x="610" y="120" width="60" height="24" fill="#ffa878" stroke="#3a3535" stroke-width="2" filter="url(#cs2-hs)"/>
  <rect x="710" y="120" width="140" height="24" fill="#ffa878" stroke="#3a3535" stroke-width="2" filter="url(#cs2-hs)"/>
  <line x1="220" y1="132" x2="260" y2="132" stroke="#3a3535" stroke-width="1.5" opacity="0.15"/>
  <line x1="340" y1="132" x2="380" y2="132" stroke="#3a3535" stroke-width="1.5" opacity="0.15"/>
  <line x1="560" y1="132" x2="610" y2="132" stroke="#3a3535" stroke-width="1.5" opacity="0.15"/>
  <line x1="670" y1="132" x2="710" y2="132" stroke="#3a3535" stroke-width="1.5" opacity="0.15"/>

  <!-- Track 2: blue blocks -->
  <rect x="120" y="245" width="200" height="20" fill="#7fb4e0" stroke="#3a3535" stroke-width="2" filter="url(#cs2-hs)"/>
  <rect x="360" y="245" width="100" height="20" fill="#7fb4e0" stroke="#3a3535" stroke-width="2" filter="url(#cs2-hs)"/>
  <rect x="500" y="245" width="250" height="20" fill="#7fb4e0" stroke="#3a3535" stroke-width="2" filter="url(#cs2-hs)"/>
  <rect x="790" y="245" width="70" height="20" fill="#7fb4e0" stroke="#3a3535" stroke-width="2" filter="url(#cs2-hs)"/>
  <line x1="320" y1="255" x2="360" y2="255" stroke="#3a3535" stroke-width="1.5" opacity="0.15"/>
  <line x1="460" y1="255" x2="500" y2="255" stroke="#3a3535" stroke-width="1.5" opacity="0.15"/>
  <line x1="750" y1="255" x2="790" y2="255" stroke="#3a3535" stroke-width="1.5" opacity="0.15"/>

  <!-- Track 3: yellow blocks -->
  <rect x="80" y="370" width="150" height="18" fill="#ffe480" stroke="#3a3535" stroke-width="2" filter="url(#cs2-hs)"/>
  <rect x="270" y="370" width="300" height="18" fill="#ffe480" stroke="#3a3535" stroke-width="2" filter="url(#cs2-hs)"/>
  <rect x="620" y="370" width="90" height="18" fill="#ffe480" stroke="#3a3535" stroke-width="2" filter="url(#cs2-hs)"/>
  <rect x="760" y="370" width="160" height="18" fill="#ffe480" stroke="#3a3535" stroke-width="2" filter="url(#cs2-hs)"/>
  <line x1="230" y1="379" x2="270" y2="379" stroke="#3a3535" stroke-width="1.5" opacity="0.15"/>
  <line x1="570" y1="379" x2="620" y2="379" stroke="#3a3535" stroke-width="1.5" opacity="0.15"/>
  <line x1="710" y1="379" x2="760" y2="379" stroke="#3a3535" stroke-width="1.5" opacity="0.15"/>

  <!-- Track 4: signal bars -->
  <rect x="100" y="475" width="12" height="30" fill="#3a3535" opacity="0.12"/>
  <rect x="118" y="485" width="12" height="20" fill="#3a3535" opacity="0.1"/>
  <rect x="136" y="470" width="12" height="35" fill="#3a3535" opacity="0.14"/>
  <rect x="154" y="480" width="12" height="25" fill="#3a3535" opacity="0.1"/>
  <rect x="172" y="490" width="12" height="15" fill="#3a3535" opacity="0.08"/>
  <rect x="190" y="465" width="12" height="40" fill="#ffa878" opacity="0.35"/>
  <rect x="208" y="460" width="12" height="45" fill="#ffa878" opacity="0.4"/>
  <rect x="226" y="468" width="12" height="37" fill="#ffa878" opacity="0.35"/>
  <rect x="244" y="478" width="12" height="27" fill="#3a3535" opacity="0.12"/>
  <rect x="262" y="488" width="12" height="17" fill="#3a3535" opacity="0.08"/>
  <rect x="280" y="492" width="12" height="13" fill="#3a3535" opacity="0.06"/>
  <rect x="298" y="486" width="12" height="19" fill="#3a3535" opacity="0.08"/>
  <rect x="316" y="478" width="12" height="27" fill="#3a3535" opacity="0.1"/>
  <rect x="334" y="472" width="12" height="33" fill="#3a3535" opacity="0.12"/>
  <rect x="352" y="465" width="12" height="40" fill="#7fb4e0" opacity="0.35"/>
  <rect x="370" y="458" width="12" height="47" fill="#7fb4e0" opacity="0.4"/>
  <rect x="388" y="455" width="12" height="50" fill="#7fb4e0" opacity="0.45"/>
  <rect x="406" y="462" width="12" height="43" fill="#7fb4e0" opacity="0.38"/>
  <rect x="424" y="475" width="12" height="30" fill="#7fb4e0" opacity="0.3"/>
  <rect x="442" y="485" width="12" height="20" fill="#3a3535" opacity="0.1"/>
  <rect x="460" y="490" width="12" height="15" fill="#3a3535" opacity="0.08"/>
  <rect x="478" y="488" width="12" height="17" fill="#3a3535" opacity="0.08"/>
  <rect x="496" y="482" width="12" height="23" fill="#3a3535" opacity="0.1"/>
  <rect x="514" y="476" width="12" height="29" fill="#3a3535" opacity="0.12"/>
  <rect x="532" y="470" width="12" height="35" fill="#ffe480" opacity="0.4"/>
  <rect x="550" y="462" width="12" height="43" fill="#ffe480" opacity="0.45"/>
  <rect x="568" y="458" width="12" height="47" fill="#ffe480" opacity="0.5"/>
  <rect x="586" y="460" width="12" height="45" fill="#ffe480" opacity="0.48"/>
  <rect x="604" y="468" width="12" height="37" fill="#ffe480" opacity="0.4"/>
  <rect x="622" y="478" width="12" height="27" fill="#ffe480" opacity="0.35"/>
  <rect x="640" y="486" width="12" height="19" fill="#3a3535" opacity="0.08"/>
  <rect x="658" y="490" width="12" height="15" fill="#3a3535" opacity="0.06"/>
  <rect x="676" y="488" width="12" height="17" fill="#3a3535" opacity="0.08"/>
  <rect x="694" y="484" width="12" height="21" fill="#3a3535" opacity="0.1"/>
  <rect x="712" y="480" width="12" height="25" fill="#3a3535" opacity="0.1"/>
  <rect x="730" y="475" width="12" height="30" fill="#3a3535" opacity="0.12"/>
  <rect x="748" y="470" width="12" height="35" fill="#ffa878" opacity="0.3"/>
  <rect x="766" y="468" width="12" height="37" fill="#ffa878" opacity="0.35"/>
  <rect x="784" y="475" width="12" height="30" fill="#ffa878" opacity="0.3"/>
  <rect x="802" y="485" width="12" height="20" fill="#3a3535" opacity="0.08"/>
  <rect x="820" y="490" width="12" height="15" fill="#3a3535" opacity="0.06"/>
  <rect x="838" y="488" width="12" height="17" fill="#3a3535" opacity="0.08"/>
  <rect x="856" y="492" width="12" height="13" fill="#3a3535" opacity="0.06"/>
  <rect x="874" y="490" width="12" height="15" fill="#3a3535" opacity="0.07"/>

  <!-- Track 5: variant markers -->
  <line x1="160" y1="600" x2="160" y2="640" stroke="#ffa878" stroke-width="3" opacity="0.5"/>
  <line x1="310" y1="600" x2="310" y2="640" stroke="#7fb4e0" stroke-width="3" opacity="0.5"/>
  <line x1="470" y1="600" x2="470" y2="640" stroke="#ffa878" stroke-width="3" opacity="0.5"/>
  <line x1="550" y1="600" x2="550" y2="640" stroke="#ffe480" stroke-width="3" opacity="0.5"/>
  <line x1="680" y1="600" x2="680" y2="640" stroke="#7fb4e0" stroke-width="3" opacity="0.5"/>
  <line x1="780" y1="600" x2="780" y2="640" stroke="#ffa878" stroke-width="3" opacity="0.5"/>
  <line x1="880" y1="600" x2="880" y2="640" stroke="#ffe480" stroke-width="3" opacity="0.5"/>
  <rect x="156" y="616" width="8" height="8" fill="#ffa878" stroke="#3a3535" stroke-width="1.5" transform="rotate(45 160 620)"/>
  <rect x="306" y="616" width="8" height="8" fill="#7fb4e0" stroke="#3a3535" stroke-width="1.5" transform="rotate(45 310 620)"/>
  <rect x="466" y="616" width="8" height="8" fill="#ffa878" stroke="#3a3535" stroke-width="1.5" transform="rotate(45 470 620)"/>
  <rect x="546" y="616" width="8" height="8" fill="#ffe480" stroke="#3a3535" stroke-width="1.5" transform="rotate(45 550 620)"/>
  <rect x="676" y="616" width="8" height="8" fill="#7fb4e0" stroke="#3a3535" stroke-width="1.5" transform="rotate(45 680 620)"/>
  <rect x="776" y="616" width="8" height="8" fill="#ffa878" stroke="#3a3535" stroke-width="1.5" transform="rotate(45 780 620)"/>
  <rect x="876" y="616" width="8" height="8" fill="#ffe480" stroke="#3a3535" stroke-width="1.5" transform="rotate(45 880 620)"/>

  <!-- Track labels -->
  <rect x="80" y="88" width="40" height="6" fill="#3a3535" opacity="0.15"/>
  <rect x="80" y="218" width="35" height="6" fill="#3a3535" opacity="0.15"/>
  <rect x="80" y="346" width="42" height="6" fill="#3a3535" opacity="0.15"/>
  <rect x="80" y="448" width="38" height="6" fill="#3a3535" opacity="0.15"/>
  <rect x="80" y="590" width="30" height="6" fill="#3a3535" opacity="0.15"/>

  <!-- Dust -->
  <rect x="940" y="100" width="5" height="5" fill="#3a3535" opacity="0.08"/>
  <rect x="950" y="400" width="5" height="5" fill="#3a3535" opacity="0.06"/>
  <rect x="940" y="680" width="5" height="5" fill="#3a3535" opacity="0.08"/>
</svg>
